<?xml version="1.0" encoding="utf-8"?>
<svg xmlns="http://www.w3.org/2000/svg" style="margin: auto; background: none; display: block; shape-rendering: auto;" width="281" height="250" preserveAspectRatio="xMidYMid">
<style type="text/css">
  text {
    text-anchor: middle; font-size: 140px; opacity: 0;
  }
</style>
<g style="transform-origin: 140.5px 125px; transform: scale(1.75);">
<g transform="translate(140.5,125)">
  <g transform="translate(0,0)"><g class="path" style="transform: scale(0.91); transform-origin: -18.48px -0.814932px; animation: 1s linear -0.44s infinite normal forwards running breath-fd5395e1-c841-494b-90b1-b543c19d9407;"><path d="M70.08-4.16L70.08-4.16Q66.32 0.24 59.96 2.88L59.96 2.88L59.96 2.88Q53.60 5.52 46.92 5.52L46.92 5.52L46.92 5.52Q40.24 5.52 35.60 4.24L35.60 4.24L35.60 4.24Q30.08 8.16 23.84 8.16L23.84 8.16L23.84 6.64L23.84 6.64Q26.96 6.56 28.36 5.80L28.36 5.80L28.36 5.80Q29.76 5.04 30.80 2.56L30.80 2.56L30.80 2.56Q26.64 0.72 23.52-2.12L23.52-2.12L23.52-2.12Q20.40-4.96 19.32-6.72L19.32-6.72L19.32-6.72Q18.24-8.48 18.24-8.80L18.24-8.80L19.68-9.36L19.68-9.36Q19.68-9.04 20.68-7.44L20.68-7.44L20.68-7.44Q21.68-5.84 24.60-3.16L24.60-3.16L24.60-3.16Q27.52-0.48 31.36 1.20L31.36 1.20L31.36 1.20Q32.48-1.60 33.20-5.76L33.20-5.76L40.32-46.88L40.32-46.88Q32-46.24 25.60-43.60L25.60-43.60L25.60-43.60Q31.04-37.84 31.04-29.84L31.04-29.84L31.04-29.84Q31.04-22.48 27.08-18.04L27.08-18.04L27.08-18.04Q23.12-13.60 18.32-13.60L18.32-13.60L18.32-13.60Q13.52-13.60 10.96-16.52L10.96-16.52L10.96-16.52Q8.40-19.44 8.40-23.44L8.40-23.44L8.40-23.44Q8.40-29.68 11.92-35.16L11.92-35.16L11.92-35.16Q15.44-40.64 22.80-44.16L22.80-44.16L22.80-44.16Q17.52-48.64 8.88-50.08L8.88-50.08L9.20-51.60L9.20-51.60Q18.88-49.84 24.32-44.80L24.32-44.80L24.32-44.80Q34-48.72 47.96-48.72L47.96-48.72L47.96-48.72Q61.92-48.72 69.92-42.36L69.92-42.36L69.92-42.36Q77.92-36 77.92-24.64L77.92-24.64L77.92-24.64Q77.92-13.04 70.08-4.16L70.08-4.16zM45.60 4.08L45.60 4.08L45.60 4.08Q53.20 4.08 59.28 1.56L59.28 1.56L59.28 1.56Q65.36-0.96 68.96-5.12L68.96-5.12L68.96-5.12Q76.40-13.60 76.40-24.12L76.40-24.12L76.40-24.12Q76.40-34.64 69.52-40.56L69.52-40.56L69.52-40.56Q62.64-46.48 50.32-47.12L50.32-47.12L50.32-47.12Q46.40-20.64 44.16-9.04L44.16-9.04L44.16-9.04Q42.72-1.68 37.12 3.12L37.12 3.12L37.12 3.12Q41.36 4.08 45.60 4.08zM9.92-23.44L9.92-23.44L9.92-23.44Q9.92-20.16 12.04-17.64L12.04-17.64L12.04-17.64Q14.16-15.12 18.36-15.12L18.36-15.12L18.36-15.12Q22.56-15.12 25.76-18.80L25.76-18.80L25.76-18.80Q28.96-22.48 29.44-28.16L29.44-28.16L29.44-28.16Q29.52-29.20 29.52-30.24L29.52-30.24L29.52-30.24Q29.52-37.44 24-42.96L24-42.96L24-42.96Q16.80-39.68 13.36-34.52L13.36-34.52L13.36-34.52Q9.92-29.36 9.92-23.44" fill="#85a2b6" stroke="none" stroke-width="none" transform="translate(-61.64000844955444,20.905066541035968)" style="fill: rgb(133, 162, 182);"></path></g><g class="path" style="transform: scale(0.91); transform-origin: 37.2px -4.65493px; animation: 1s linear -0.22s infinite normal forwards running breath-fd5395e1-c841-494b-90b1-b543c19d9407;"><path d="M93.84-15.44L93.84-15.44L90.96 0L81.44 0L90.48-50.24L90.48-50.24Q88.08-50 86.48-48L86.48-48L85.28-48.96L85.28-48.96Q87.68-51.84 91.32-51.84L91.32-51.84L91.32-51.84Q94.96-51.84 96.96-50L96.96-50L96.96-50Q98.96-48.16 98.96-44.80L98.96-44.80L98.96-44.80Q98.96-44.16 98.80-42.72L98.80-42.72L98.80-42.72Q96.96-32.56 94.80-20.80L94.80-20.80L94.80-20.80Q96.80-25.68 100.56-28.40L100.56-28.40L100.56-28.40Q104.32-31.12 108.56-31.12L108.56-31.12L108.56-31.12Q112.80-31.12 114.52-29.44L114.52-29.44L114.52-29.44Q116.24-27.76 116.24-25.24L116.24-25.24L116.24-25.24Q116.24-22.72 114.72-21.12L114.72-21.12L114.72-21.12Q113.20-19.52 110.76-19.52L110.76-19.52L110.76-19.52Q108.32-19.52 107.00-20.92L107.00-20.92L107.00-20.92Q105.68-22.32 105.68-25.08L105.68-25.08L105.68-25.08Q105.68-27.84 107.60-29.28L107.60-29.28L107.60-29.28Q99.92-28.40 95.36-17.92L95.36-17.92L95.36-17.92Q96.48-18.08 97.28-18.08L97.28-18.08L97.28-18.08Q101.52-18.08 103.96-16.40L103.96-16.40L103.96-16.40Q106.40-14.72 107.12-12.28L107.12-12.28L107.12-12.28Q107.84-9.84 108.16-7.40L108.16-7.40L108.16-7.40Q108.48-4.96 109.20-3.28L109.20-3.28L109.20-3.28Q109.92-1.60 111.76-1.60L111.76-1.60L111.76-1.60Q113.60-1.60 114.64-3.12L114.64-3.12L115.84-2.16L115.84-2.16Q115.28-1.04 113.36-0.16L113.36-0.16L113.36-0.16Q111.44 0.72 108.44 0.72L108.44 0.72L108.44 0.72Q105.44 0.72 103.16-0.80L103.16-0.80L103.16-0.80Q100.88-2.32 100.00-4.60L100.00-4.60L100.00-4.60Q99.12-6.88 98.56-9.12L98.56-9.12L98.56-9.12Q97.04-14.88 93.84-15.44" fill="#85a2b6" stroke="none" stroke-width="none" transform="translate(-61.64000844955444,20.905066541035968)" style="fill: rgb(187, 206, 221);"></path></g><g class="path" style="transform: scale(0.91); transform-origin: 64.24px 15.7451px; animation: 1s linear 0s infinite normal forwards running breath-fd5395e1-c841-494b-90b1-b543c19d9407;"><path d="M121.76-1.04L121.76-1.04L121.76-1.04Q120.08-2.72 120.08-5.12L120.08-5.12L120.08-5.12Q120.08-7.52 121.76-9.24L121.76-9.24L121.76-9.24Q123.44-10.96 125.84-10.96L125.84-10.96L125.84-10.96Q128.24-10.96 129.96-9.24L129.96-9.24L129.96-9.24Q131.68-7.52 131.68-5.12L131.68-5.12L131.68-5.12Q131.68-2.72 129.96-1.04L129.96-1.04L129.96-1.04Q128.24 0.64 125.84 0.64L125.84 0.64L125.84 0.64Q123.44 0.64 121.76-1.04" fill="#85a2b6" stroke="none" stroke-width="none" transform="translate(-61.64000844955444,20.905066541035968)" style="fill: rgb(220, 228, 235);"></path></g></g>
</g>
</g>
<style id="breath-fd5395e1-c841-494b-90b1-b543c19d9407" data-anikit="">@keyframes breath-fd5395e1-c841-494b-90b1-b543c19d9407
{
  0% {
    animation-timing-function: cubic-bezier(0.9647,0.2413,-0.0705,0.7911);
    transform: scale(0.9099999999999999);
  }
  51% {
    animation-timing-function: cubic-bezier(0.9226,0.2631,-0.0308,0.7628);
    transform: scale(1.02994);
  }
  100% {
    transform: scale(0.9099999999999999);
  }
}</style></svg>